<?xml version="1.0" encoding="UTF-8"?>
<svg xmlns="http://www.w3.org/2000/svg" xmlns:xlink="http://www.w3.org/1999/xlink" width="100pt" height="100pt" viewBox="0 0 100 100" version="1.1">
<g id="surface2493398">
<path style=" stroke:none;fill-rule:nonzero;fill:rgb(100%,100%,100%);fill-opacity:1;" d="M 30.304688 17.652344 C 23.136719 17.652344 17.304688 23.484375 17.304688 30.652344 L 17.304688 69.652344 C 17.304688 76.824219 23.136719 82.652344 30.304688 82.652344 L 69.304688 82.652344 C 76.476562 82.652344 82.304688 76.824219 82.304688 69.652344 L 82.304688 30.652344 C 82.304688 23.484375 76.476562 17.652344 69.304688 17.652344 Z M 30.304688 19.652344 L 69.304688 19.652344 C 75.371094 19.652344 80.304688 24.589844 80.304688 30.652344 L 80.304688 69.652344 C 80.304688 75.71875 75.371094 80.652344 69.304688 80.652344 L 30.304688 80.652344 C 24.242188 80.652344 19.304688 75.71875 19.304688 69.652344 L 19.304688 30.652344 C 19.304688 24.589844 24.242188 19.652344 30.304688 19.652344 Z M 33.144531 22.652344 C 27.167969 22.652344 22.304688 27.515625 22.304688 33.488281 L 22.304688 66.816406 C 22.304688 72.792969 27.167969 77.652344 33.144531 77.652344 L 66.472656 77.652344 C 72.445312 77.652344 77.304688 72.792969 77.304688 66.816406 L 77.304688 48.152344 C 77.304688 47.878906 77.082031 47.652344 76.804688 47.652344 C 76.53125 47.652344 76.304688 47.878906 76.304688 48.152344 L 76.304688 66.816406 C 76.304688 72.242188 71.894531 76.652344 66.472656 76.652344 L 33.144531 76.652344 C 27.71875 76.652344 23.304688 72.242188 23.304688 66.816406 L 23.304688 33.488281 C 23.304688 28.066406 27.71875 23.652344 33.144531 23.652344 L 66.804688 23.652344 C 67.082031 23.652344 67.304688 23.429688 67.304688 23.152344 C 67.304688 22.875 67.082031 22.652344 66.804688 22.652344 Z M 38.824219 35.695312 C 36.738281 35.695312 35.222656 37.15625 35.222656 39.175781 C 35.222656 41.191406 36.707031 42.652344 38.789062 42.652344 C 40.875 42.652344 42.390625 41.191406 42.390625 39.164062 C 42.339844 37.121094 40.871094 35.695312 38.824219 35.695312 Z M 38.824219 36.695312 C 40.34375 36.695312 41.355469 37.675781 41.390625 39.175781 C 41.390625 40.636719 40.320312 41.65625 38.753906 41.65625 C 37.265625 41.65625 36.222656 40.636719 36.222656 39.175781 C 36.222656 37.714844 37.292969 36.695312 38.824219 36.695312 Z M 76.804688 37.652344 C 76.53125 37.652344 76.304688 37.878906 76.304688 38.152344 L 76.304688 40.152344 C 76.304688 40.429688 76.53125 40.652344 76.804688 40.652344 C 77.082031 40.652344 77.304688 40.429688 77.304688 40.152344 L 77.304688 38.152344 C 77.304688 37.878906 77.082031 37.652344 76.804688 37.652344 Z M 76.804688 41.652344 C 76.53125 41.652344 76.304688 41.878906 76.304688 42.152344 L 76.304688 46.152344 C 76.304688 46.429688 76.53125 46.652344 76.804688 46.652344 C 77.082031 46.652344 77.304688 46.429688 77.304688 46.152344 L 77.304688 42.152344 C 77.304688 41.878906 77.082031 41.652344 76.804688 41.652344 Z M 57.578125 44.53125 C 55.375 44.542969 53.59375 45.199219 52.304688 46.582031 L 52.304688 45.152344 C 52.304688 44.875 52.082031 44.652344 51.804688 44.652344 L 45.730469 44.652344 C 45.59375 44.652344 45.460938 44.707031 45.367188 44.804688 C 45.273438 44.90625 45.222656 45.039062 45.230469 45.175781 C 45.3125 46.925781 45.230469 63.976562 45.230469 64.148438 C 45.230469 64.285156 45.28125 64.410156 45.375 64.503906 C 45.46875 64.601562 45.597656 64.652344 45.730469 64.652344 L 51.804688 64.652344 C 52.082031 64.652344 52.304688 64.429688 52.304688 64.152344 L 52.304688 53.539062 C 52.304688 52.925781 52.367188 52.472656 52.480469 52.183594 C 52.726562 51.585938 53.480469 50.1875 55.265625 50.1875 C 57.933594 50.1875 58.222656 52.894531 58.222656 54.0625 L 58.304688 64.15625 C 58.308594 64.429688 58.53125 64.652344 58.804688 64.652344 L 64.804688 64.652344 C 65.082031 64.652344 65.304688 64.429688 65.304688 64.152344 L 65.304688 53.972656 C 65.304688 50.644531 64.484375 48.136719 62.863281 46.515625 C 61.542969 45.199219 59.765625 44.53125 57.574219 44.53125 Z M 35.804688 44.652344 C 35.53125 44.652344 35.304688 44.878906 35.304688 45.152344 L 35.304688 64.152344 C 35.304688 64.429688 35.53125 64.652344 35.804688 64.652344 L 41.804688 64.652344 C 42.082031 64.652344 42.304688 64.429688 42.304688 64.152344 L 42.304688 45.152344 C 42.304688 44.878906 42.082031 44.652344 41.804688 44.652344 Z M 57.558594 45.535156 L 57.578125 45.535156 C 59.492188 45.535156 61.035156 46.105469 62.160156 47.226562 C 63.582031 48.648438 64.304688 50.917969 64.304688 53.976562 L 64.304688 63.652344 L 59.300781 63.652344 L 59.222656 54.0625 C 59.222656 51.058594 57.707031 49.191406 55.269531 49.191406 C 53.609375 49.191406 52.21875 50.167969 51.558594 51.808594 C 51.386719 52.21875 51.308594 52.785156 51.308594 53.539062 L 51.308594 63.652344 L 46.234375 63.652344 C 46.246094 60.957031 46.296875 48.679688 46.242188 45.652344 L 51.308594 45.652344 L 51.308594 47.957031 C 51.25 48.097656 51.273438 48.261719 51.351562 48.398438 C 51.4375 48.554688 51.625 48.652344 51.808594 48.652344 C 52.015625 48.652344 52.191406 48.488281 52.269531 48.289062 C 52.996094 47.089844 54.34375 45.535156 57.5625 45.535156 Z M 36.304688 45.652344 L 41.304688 45.652344 L 41.304688 63.652344 L 36.304688 63.652344 Z M 36.304688 45.652344 "/>
</g>
</svg>
