<?xml version="1.0" encoding="UTF-8"?>
<svg xmlns="http://www.w3.org/2000/svg" xmlns:xlink="http://www.w3.org/1999/xlink" width="100pt" height="100pt" viewBox="0 0 100 100" version="1.1">
<g id="surface2493283">
<path style=" stroke:none;fill-rule:nonzero;fill:rgb(100%,100%,100%);fill-opacity:1;" d="M 30.960938 17.652344 C 23.792969 17.652344 17.960938 23.484375 17.960938 30.652344 L 17.960938 69.652344 C 17.960938 76.824219 23.792969 82.652344 30.960938 82.652344 L 69.960938 82.652344 C 77.128906 82.652344 82.960938 76.824219 82.960938 69.652344 L 82.960938 30.652344 C 82.960938 23.484375 77.128906 17.652344 69.960938 17.652344 Z M 30.960938 19.652344 L 69.960938 19.652344 C 76.027344 19.652344 80.960938 24.589844 80.960938 30.652344 L 80.960938 69.652344 C 80.960938 75.71875 76.027344 80.652344 69.960938 80.652344 L 30.960938 80.652344 C 24.894531 80.652344 19.960938 75.71875 19.960938 69.652344 L 19.960938 30.652344 C 19.960938 24.589844 24.894531 19.652344 30.960938 19.652344 Z M 33.796875 22.652344 C 27.824219 22.652344 22.960938 27.515625 22.960938 33.488281 L 22.960938 66.816406 C 22.960938 72.792969 27.824219 77.652344 33.796875 77.652344 L 67.121094 77.652344 C 73.097656 77.652344 77.960938 72.792969 77.960938 66.816406 L 77.960938 48.152344 C 77.960938 47.878906 77.738281 47.652344 77.460938 47.652344 C 77.183594 47.652344 76.960938 47.878906 76.960938 48.152344 L 76.960938 66.816406 C 76.960938 72.242188 72.546875 76.652344 67.121094 76.652344 L 33.796875 76.652344 C 28.375 76.652344 23.960938 72.242188 23.960938 66.816406 L 23.960938 33.488281 C 23.960938 28.066406 28.375 23.652344 33.796875 23.652344 L 67.460938 23.652344 C 67.738281 23.652344 67.960938 23.429688 67.960938 23.152344 C 67.960938 22.875 67.738281 22.652344 67.460938 22.652344 Z M 50 34.695312 C 46.019531 34.695312 45.535156 34.707031 43.976562 34.785156 C 42.515625 34.847656 41.378906 35.0625 40.289062 35.488281 C 39.203125 35.90625 38.355469 36.457031 37.542969 37.265625 C 36.726562 38.074219 36.175781 38.917969 35.753906 39.996094 C 35.328125 41.078125 35.109375 42.207031 35.046875 43.6875 C 34.976562 45.214844 34.957031 45.726562 34.957031 49.648438 C 34.957031 53.601562 34.96875 54.085938 35.046875 55.632812 C 35.109375 57.082031 35.328125 58.214844 35.753906 59.300781 C 36.175781 60.378906 36.726562 61.21875 37.542969 62.03125 C 38.355469 62.839844 39.203125 63.386719 40.289062 63.808594 C 41.378906 64.230469 42.515625 64.445312 44.007812 64.511719 C 45.542969 64.578125 46.058594 64.601562 50 64.601562 C 53.980469 64.601562 54.464844 64.589844 56.023438 64.511719 C 57.484375 64.445312 58.621094 64.230469 59.710938 63.808594 C 60.796875 63.386719 61.640625 62.839844 62.457031 62.03125 C 63.273438 61.21875 63.824219 60.378906 64.242188 59.300781 C 64.671875 58.214844 64.890625 57.085938 64.953125 55.613281 C 65.019531 54.085938 65.042969 53.570312 65.042969 49.648438 C 65.042969 45.691406 65.03125 45.210938 64.953125 43.664062 C 64.890625 42.210938 64.671875 41.078125 64.242188 39.996094 C 63.824219 38.917969 63.273438 38.074219 62.457031 37.265625 C 61.640625 36.453125 60.796875 35.90625 59.710938 35.488281 C 58.621094 35.066406 57.484375 34.847656 55.992188 34.785156 C 54.457031 34.71875 53.941406 34.695312 50 34.695312 Z M 50.003906 35.695312 C 53.921875 35.695312 54.433594 35.714844 55.984375 35.785156 C 57.328125 35.84375 58.367188 36.039062 59.355469 36.421875 C 60.300781 36.789062 61.042969 37.265625 61.753906 37.972656 C 62.464844 38.679688 62.949219 39.414062 63.316406 40.359375 C 63.699219 41.335938 63.898438 42.367188 63.957031 43.707031 C 64.035156 45.234375 64.046875 45.714844 64.046875 49.648438 C 64.046875 53.550781 64.023438 54.058594 63.957031 55.589844 C 63.894531 56.925781 63.699219 57.960938 63.316406 58.9375 C 62.945312 59.878906 62.464844 60.613281 61.753906 61.324219 C 61.039062 62.027344 60.300781 62.507812 59.351562 62.875 C 58.363281 63.253906 57.324219 63.453125 55.976562 63.511719 C 54.4375 63.589844 53.953125 63.601562 50 63.601562 C 46.078125 63.601562 45.566406 63.578125 44.019531 63.511719 C 42.671875 63.453125 41.632812 63.253906 40.648438 62.875 C 39.699219 62.507812 38.960938 62.027344 38.246094 61.324219 C 37.535156 60.613281 37.054688 59.878906 36.683594 58.9375 C 36.300781 57.957031 36.105469 56.925781 36.046875 55.585938 C 35.96875 54.058594 35.957031 53.578125 35.957031 49.648438 C 35.957031 45.75 35.980469 45.242188 36.046875 43.707031 C 36.105469 42.367188 36.300781 41.335938 36.6875 40.359375 C 37.054688 39.414062 37.535156 38.679688 38.246094 37.972656 C 38.960938 37.265625 39.699219 36.789062 40.648438 36.421875 C 41.636719 36.039062 42.675781 35.839844 44.023438 35.785156 C 45.566406 35.707031 46.046875 35.695312 50 35.695312 Z M 77.460938 37.652344 C 77.183594 37.652344 76.960938 37.878906 76.960938 38.152344 L 76.960938 40.152344 C 76.960938 40.429688 77.183594 40.652344 77.460938 40.652344 C 77.738281 40.652344 77.960938 40.429688 77.960938 40.152344 L 77.960938 38.152344 C 77.960938 37.878906 77.738281 37.652344 77.460938 37.652344 Z M 58.027344 39.195312 C 56.792969 39.195312 55.789062 40.195312 55.789062 41.425781 C 55.789062 42.65625 56.792969 43.65625 58.027344 43.65625 C 59.265625 43.65625 60.269531 42.65625 60.269531 41.425781 C 60.273438 40.195312 59.265625 39.195312 58.027344 39.195312 Z M 58.027344 40.195312 C 58.714844 40.195312 59.269531 40.746094 59.269531 41.425781 C 59.273438 42.105469 58.714844 42.65625 58.027344 42.65625 C 57.34375 42.65625 56.789062 42.105469 56.789062 41.425781 C 56.789062 40.746094 57.34375 40.195312 58.027344 40.195312 Z M 77.460938 41.652344 C 77.183594 41.652344 76.960938 41.878906 76.960938 42.152344 L 76.960938 46.152344 C 76.960938 46.429688 77.183594 46.652344 77.460938 46.652344 C 77.738281 46.652344 77.960938 46.429688 77.960938 46.152344 L 77.960938 42.152344 C 77.960938 41.878906 77.738281 41.652344 77.460938 41.652344 Z M 49.988281 41.722656 C 45.589844 41.722656 42.011719 45.277344 42.011719 49.644531 C 42.011719 54.015625 45.589844 57.574219 49.988281 57.574219 C 54.386719 57.574219 57.960938 54.015625 57.960938 49.644531 C 57.960938 45.277344 54.386719 41.722656 49.988281 41.722656 Z M 49.988281 42.722656 C 53.835938 42.722656 56.960938 45.828125 56.960938 49.644531 C 56.960938 53.464844 53.835938 56.574219 49.988281 56.574219 C 46.140625 56.574219 43.011719 53.464844 43.011719 49.644531 C 43.011719 45.828125 46.140625 42.722656 49.988281 42.722656 Z M 49.988281 42.722656 "/>
</g>
</svg>
