<?xml version="1.0" encoding="UTF-8"?>
<svg xmlns="http://www.w3.org/2000/svg" xmlns:xlink="http://www.w3.org/1999/xlink" width="100pt" height="100pt" viewBox="0 0 100 100" version="1.1">
<g id="surface2493787">
<path style=" stroke:none;fill-rule:nonzero;fill:rgb(100%,100%,100%);fill-opacity:1;" d="M 30.613281 17.652344 C 23.445312 17.652344 17.613281 23.484375 17.613281 30.652344 L 17.613281 69.652344 C 17.613281 76.824219 23.445312 82.652344 30.613281 82.652344 L 69.613281 82.652344 C 76.78125 82.652344 82.613281 76.824219 82.613281 69.652344 L 82.613281 30.652344 C 82.613281 23.484375 76.78125 17.652344 69.613281 17.652344 Z M 30.613281 19.652344 L 69.613281 19.652344 C 75.679688 19.652344 80.613281 24.589844 80.613281 30.652344 L 80.613281 69.652344 C 80.613281 75.71875 75.679688 80.652344 69.613281 80.652344 L 30.613281 80.652344 C 24.546875 80.652344 19.613281 75.71875 19.613281 69.652344 L 19.613281 30.652344 C 19.613281 24.589844 24.546875 19.652344 30.613281 19.652344 Z M 33.453125 22.652344 C 27.476562 22.652344 22.613281 27.515625 22.613281 33.488281 L 22.613281 66.816406 C 22.613281 72.792969 27.476562 77.652344 33.453125 77.652344 L 66.777344 77.652344 C 72.753906 77.652344 77.613281 72.792969 77.613281 66.816406 L 77.613281 48.152344 C 77.613281 47.878906 77.390625 47.652344 77.113281 47.652344 C 76.835938 47.652344 76.613281 47.878906 76.613281 48.152344 L 76.613281 66.816406 C 76.613281 72.242188 72.203125 76.652344 66.777344 76.652344 L 33.453125 76.652344 C 28.027344 76.652344 23.613281 72.242188 23.613281 66.816406 L 23.613281 33.488281 C 23.613281 28.066406 28.027344 23.652344 33.453125 23.652344 L 67.113281 23.652344 C 67.390625 23.652344 67.613281 23.429688 67.613281 23.152344 C 67.613281 22.875 67.390625 22.652344 67.113281 22.652344 Z M 56.152344 37.347656 C 52.257812 37.347656 49.089844 40.515625 49.089844 44.410156 C 49.089844 44.730469 49.113281 45.050781 49.152344 45.363281 C 44.273438 44.945312 39.734375 42.550781 36.617188 38.734375 C 36.511719 38.605469 36.355469 38.542969 36.191406 38.550781 C 36.027344 38.5625 35.882812 38.65625 35.796875 38.796875 C 35.171875 39.871094 34.839844 41.101562 34.839844 42.347656 C 34.839844 44.089844 35.480469 45.746094 36.605469 47.019531 C 36.234375 46.898438 35.871094 46.742188 35.53125 46.554688 C 35.378906 46.46875 35.195312 46.46875 35.042969 46.554688 C 34.890625 46.640625 34.796875 46.800781 34.789062 46.972656 C 34.789062 46.980469 34.789062 47.066406 34.789062 47.070312 C 34.789062 49.664062 36.210938 51.996094 38.371094 53.222656 C 38.144531 53.207031 37.917969 53.175781 37.683594 53.128906 C 37.515625 53.101562 37.332031 53.15625 37.214844 53.289062 C 37.097656 53.421875 37.058594 53.605469 37.113281 53.773438 C 37.894531 56.214844 39.921875 58.003906 42.363281 58.523438 C 40.335938 59.816406 38.011719 60.488281 35.570312 60.488281 C 35.0625 60.488281 34.554688 60.460938 34.0625 60.402344 C 33.835938 60.375 33.613281 60.511719 33.53125 60.730469 C 33.453125 60.949219 33.539062 61.191406 33.734375 61.316406 C 36.824219 63.296875 40.394531 64.34375 44.0625 64.34375 C 56.066406 64.34375 63.238281 54.59375 63.238281 45.167969 C 63.238281 44.96875 63.234375 44.765625 63.226562 44.566406 C 64.472656 43.632812 65.542969 42.503906 66.410156 41.199219 C 66.535156 41.015625 66.523438 40.773438 66.378906 40.601562 C 66.234375 40.433594 65.996094 40.378906 65.792969 40.464844 C 65.238281 40.714844 64.664062 40.917969 64.078125 41.082031 C 64.757812 40.335938 65.277344 39.453125 65.589844 38.476562 C 65.652344 38.28125 65.585938 38.066406 65.425781 37.933594 C 65.261719 37.804688 65.039062 37.789062 64.859375 37.894531 C 63.6875 38.589844 62.425781 39.085938 61.109375 39.371094 C 59.796875 38.082031 58.003906 37.347656 56.152344 37.347656 Z M 77.113281 37.652344 C 76.835938 37.652344 76.613281 37.878906 76.613281 38.152344 L 76.613281 40.152344 C 76.613281 40.429688 76.835938 40.652344 77.113281 40.652344 C 77.390625 40.652344 77.613281 40.429688 77.613281 40.152344 L 77.613281 38.152344 C 77.613281 37.878906 77.390625 37.652344 77.113281 37.652344 Z M 56.152344 38.347656 C 57.824219 38.347656 59.4375 39.046875 60.582031 40.265625 C 60.699219 40.390625 60.878906 40.445312 61.042969 40.410156 C 62.085938 40.207031 63.097656 39.882812 64.0625 39.441406 C 63.554688 40.289062 62.839844 41.007812 61.96875 41.527344 C 61.769531 41.648438 61.679688 41.894531 61.753906 42.117188 C 61.828125 42.34375 62.054688 42.484375 62.285156 42.453125 C 63.054688 42.363281 63.8125 42.207031 64.550781 41.988281 C 63.917969 42.707031 63.207031 43.351562 62.425781 43.914062 C 62.292969 44.015625 62.214844 44.171875 62.21875 44.339844 C 62.230469 44.617188 62.238281 44.894531 62.238281 45.171875 C 62.238281 54.105469 55.445312 63.34375 44.066406 63.34375 C 41.273438 63.34375 38.542969 62.707031 36.054688 61.480469 C 38.976562 61.382812 41.722656 60.382812 44.027344 58.574219 C 44.195312 58.445312 44.261719 58.222656 44.195312 58.019531 C 44.128906 57.820312 43.941406 57.6875 43.730469 57.679688 C 41.40625 57.636719 39.339844 56.277344 38.363281 54.222656 C 39.148438 54.277344 39.929688 54.195312 40.683594 53.992188 C 40.910156 53.929688 41.0625 53.726562 41.054688 53.492188 C 41.046875 53.261719 40.882812 53.066406 40.652344 53.019531 C 38.09375 52.503906 36.171875 50.394531 35.839844 47.804688 C 36.605469 48.113281 37.421875 48.285156 38.246094 48.3125 C 38.472656 48.34375 38.671875 48.179688 38.738281 47.964844 C 38.804688 47.753906 38.726562 47.519531 38.539062 47.394531 C 36.851562 46.265625 35.84375 44.378906 35.84375 42.347656 C 35.84375 41.519531 36.011719 40.703125 36.335938 39.945312 C 39.75 43.804688 44.589844 46.148438 49.734375 46.40625 C 49.886719 46.410156 50.042969 46.347656 50.144531 46.226562 C 50.246094 46.105469 50.285156 45.945312 50.246094 45.792969 C 50.144531 45.351562 50.089844 44.882812 50.089844 44.410156 C 50.089844 41.066406 52.8125 38.347656 56.152344 38.347656 Z M 77.113281 41.652344 C 76.835938 41.652344 76.613281 41.878906 76.613281 42.152344 L 76.613281 46.152344 C 76.613281 46.429688 76.835938 46.652344 77.113281 46.652344 C 77.390625 46.652344 77.613281 46.429688 77.613281 46.152344 L 77.613281 42.152344 C 77.613281 41.878906 77.390625 41.652344 77.113281 41.652344 Z M 77.113281 41.652344 "/>
</g>
</svg>
